Coordinates
version=1
nRows=30
nColumns=33
inDegrees=yes

Units are S.I. units (second, meters, Newtons, ...)
Angles are in degrees.

endheader
time	ground_thorax_rot_x	ground_thorax_rot_y	ground_thorax_rot_z	ground_thorax_tx	ground_thorax_ty	ground_thorax_tz	clav_prot_r	clav_elev_r	scapula_abduction_r	scapula_elevation_r	scapula_upward_rot_r	scapula_winging_r	shoulder_elv_r	plane_of_elev_r	axial_rot_r	elbow_flexion_r	pro_sup_r	wrist_flex_r	wrist_dev_r	clav_prot_l	clav_elev_l	scapula_abduction_l	scapula_elevation_l	scapula_upward_rot_l	scapula_winging_l	shoulder_elv_l	plane_of_elev_l	axial_rot_l	elbow_flexion_l	pro_sup_l	wrist_flex_l	wrist_dev_l	
2.2700	24.625580	35.465490	2.907951	0.009512	1.007205	-0.035501	-19.563110	35.115928	-23.970598	25.755606	45.000000	-9.711871	-10.259229	-90.000000	19.492539	69.817213	9.179737	42.317155	-25.269661	17.814427	-8.861209	-45.000000	3.330586	9.461749	19.557461	28.127032	-60.762571	-42.964447	68.696893	27.145386	0.273676	-24.999999	
2.2800	24.697724	35.548842	2.770353	0.009570	1.006972	-0.035523	-19.678344	35.028273	-24.067048	25.659239	45.000000	-9.791073	-10.039061	-90.000000	19.273120	69.679325	10.048864	42.182652	-24.885108	17.837803	-8.918002	-45.000000	3.354453	9.385291	19.537903	28.091789	-60.575118	-43.027035	68.542763	26.709364	-0.656706	-24.999999	
2.2900	24.768596	35.635874	2.617203	0.009643	1.006799	-0.035572	-19.804817	34.926412	-24.162987	25.548311	45.000000	-9.879615	-9.802471	-90.000000	19.037335	69.522238	10.976858	42.052135	-24.492723	17.867583	-8.991221	-45.000000	3.385550	9.288107	19.511897	28.050328	-60.370286	-43.044867	68.379804	26.235293	-1.638099	-24.999998	
2.3000	24.803188	35.694095	2.532703	0.009676	1.006635	-0.035612	-19.896836	34.830897	-24.195199	25.448426	45.000000	-9.952649	-9.655188	-90.000000	18.890549	69.407683	11.528455	42.006861	-24.308482	17.898648	-9.072755	-45.000000	3.422401	9.187542	19.481795	28.003365	-60.231659	-42.933432	68.294511	25.930886	-2.188907	-24.999996	
2.3100	24.825217	35.724103	2.469679	0.009685	1.006492	-0.035661	-19.967750	34.732055	-24.176059	25.348833	45.000000	-10.018849	-9.543713	-90.000000	18.779434	69.317375	11.911809	42.040743	-24.241535	17.938393	-9.173711	-45.000000	3.466705	9.058147	19.444532	27.943265	-60.115487	-42.688151	68.263426	25.689640	-2.518668	-24.999993	
2.3200	24.838365	35.733380	2.426671	0.009662	1.006370	-0.035722	-20.018541	34.633655	-24.114316	25.252802	45.000000	-10.077132	-9.458270	-90.000000	18.694242	69.252261	12.160383	42.146497	-24.271758	17.985960	-9.293304	-45.000000	3.518676	8.902982	19.400056	27.871662	-60.014482	-42.326548	68.283438	25.495770	-2.660283	-24.999988	
2.3300	24.854716	35.728376	2.389201	0.009625	1.006241	-0.035795	-20.051127	34.543664	-24.028117	25.167129	45.000000	-10.125123	-9.377594	-90.000000	18.613777	69.212382	12.361261	42.304930	-24.343013	18.038946	-9.424230	-45.000000	3.574602	8.729658	19.351372	27.793786	-59.914118	-41.896235	68.341786	25.311762	-2.710769	-24.999979	
2.3400	24.885638	35.727118	2.353946	0.009571	1.006099	-0.035882	-20.069738	34.473423	-23.946237	25.101321	45.000000	-10.159904	-9.280324	-90.000000	18.516751	69.197131	12.593447	42.496242	-24.408000	18.096506	-9.568059	-45.000000	3.636602	8.541485	19.297132	27.714329	-59.800496	-41.441779	68.429182	25.098590	-2.736787	-24.999963	
2.3500	24.927545	35.730337	2.322060	0.009516	1.005940	-0.035974	-20.075443	34.422846	-23.870799	25.055117	45.000000	-10.182033	-9.172245	-90.000000	18.408939	69.206010	12.843716	42.707556	-24.464141	18.155528	-9.718420	-45.000000	3.702570	8.349003	19.239556	27.639074	-59.677191	-40.982750	68.541969	24.865885	-2.738239	-24.999934	
2.3600	24.969864	35.751874	2.305275	0.009457	1.005776	-0.036072	-20.072433	34.393648	-23.813694	25.029390	45.000000	-10.192386	-9.061339	-90.000000	18.298300	69.240069	13.083748	42.907756	-24.506356	18.208984	-9.864168	-45.000000	3.770372	8.176387	19.181868	27.579527	-59.550578	-40.568156	68.674678	24.632608	-2.708274	-24.999882	
2.3700	24.999400	35.791780	2.305749	0.009399	1.005606	-0.036182	-20.063541	34.378756	-23.768817	25.017345	45.000000	-10.194889	-8.958587	-90.000000	18.195778	69.300179	13.278624	43.069785	-24.530896	18.249217	-9.987886	-45.000000	3.833288	8.049130	19.130646	27.545696	-59.427057	-40.237138	68.820616	24.424288	-2.656343	-24.999788	
2.3800	25.019967	35.845287	2.310572	0.009338	1.005419	-0.036295	-20.052262	34.372478	-23.733863	25.013380	45.000000	-10.192936	-8.858306	-90.000000	18.095703	69.399630	13.436828	43.200374	-24.534455	18.279799	-10.095430	-45.000000	3.892522	7.954870	19.084219	27.542555	-59.300439	-39.963803	69.001101	24.219524	-2.572147	-24.999621	
2.3900	25.027027	35.904285	2.310789	0.009276	1.005247	-0.036411	-20.043085	34.359425	-23.691857	25.003049	45.000000	-10.194434	-8.762389	-90.000000	17.999963	69.528558	13.556127	43.297959	-24.521026	18.303031	-10.191456	-45.000000	3.949731	7.886116	19.040898	27.568768	-59.164516	-39.724038	69.206647	24.014297	-2.465675	-24.999321	
2.4000	25.039899	35.963574	2.285565	0.009211	1.005096	-0.036507	-20.038183	34.337573	-23.644075	24.984229	45.000000	-10.200874	-8.657191	-90.000000	17.894961	69.698707	13.661974	43.372023	-24.474103	18.332115	-10.309873	-45.000000	4.019776	7.799669	18.987127	27.636793	-58.998227	-39.466950	69.453395	23.747381	-2.280865	-24.998784	
2.4100	25.056286	36.028401	2.249153	0.009139	1.004992	-0.036593	-20.033794	34.311071	-23.589403	24.961186	45.000000	-10.209451	-8.546859	-90.000000	17.784838	69.895499	13.750095	43.418957	-24.400258	18.365900	-10.449410	-45.000000	4.102834	7.699710	18.923004	27.738033	-58.800434	-39.206442	69.716724	23.431965	-2.023750	-24.997824	
2.4200	25.092065	36.095354	2.194086	0.009067	1.004897	-0.036655	-20.027370	34.288977	-23.537750	24.942384	45.000000	-10.215482	-8.421830	-90.000000	17.660079	70.133547	13.847737	43.459007	-24.305538	18.413432	-10.621707	-45.000000	4.199186	7.554248	18.845885	27.867191	-58.556397	-38.901364	70.013634	23.027966	-1.666302	-24.996096	
2.4300	25.127615	36.175618	2.152920	0.008993	1.004835	-0.036721	-20.013695	34.276548	-23.486718	24.933284	45.000000	-10.215246	-8.299646	-90.000000	17.538181	70.385976	13.924641	43.476422	-24.210518	18.461969	-10.795200	-45.000000	4.295454	7.405146	18.768129	28.006207	-58.280141	-38.612720	70.300707	22.602267	-1.259418	-24.993024	
2.4400	25.177852	36.272293	2.104271	0.008911	1.004788	-0.036773	-19.998806	34.271970	-23.446358	24.931377	45.000000	-10.211472	-8.174210	-90.000000	17.413086	70.673424	13.970599	43.448308	-24.101158	18.521127	-10.983824	-45.000000	4.393070	7.218403	18.685825	28.177082	-57.935636	-38.320517	70.590453	22.094658	-0.716737	-24.987457	
2.4500	25.220096	36.390977	2.074806	0.008829	1.004774	-0.036840	-19.979952	34.274223	-23.408955	24.936147	45.000000	-10.203715	-8.060338	-90.000000	17.299561	70.964018	13.967715	43.375157	-23.994350	18.577917	-11.156833	-45.000000	4.479663	7.037066	18.610779	28.360934	-57.547392	-38.071007	70.852227	21.579773	-0.116702	-24.977663	
2.4600	25.259154	36.522050	2.050349	0.008752	1.004734	-0.036906	-19.958461	34.282473	-23.376032	24.946653	45.000000	-10.192527	-7.953288	-90.000000	17.192890	71.282737	13.919746	43.265066	-23.877365	18.638924	-11.313802	-45.000000	4.547497	6.835349	18.546165	28.572893	-57.104016	-37.844696	71.120552	21.024357	0.567222	-24.959624	
2.4700	25.275292	36.662584	2.053987	0.008690	1.004712	-0.036993	-19.930782	34.291521	-23.330970	24.958763	45.000000	-10.178863	-7.860276	-90.000000	17.100244	71.588786	13.834980	43.143526	-23.757999	18.695504	-11.443657	-45.000000	4.596353	6.643741	18.494691	28.792368	-56.640240	-37.662048	71.369579	20.499488	1.234070	-24.928689	
2.4800	25.295385	36.810942	2.051167	0.008624	1.004696	-0.037065	-19.904084	34.297913	-23.283540	24.968358	45.000000	-10.166448	-7.763414	-90.000000	17.003842	71.913331	13.707923	42.992574	-23.584815	18.777766	-11.589366	-45.000000	4.629524	6.354171	18.444605	29.073532	-56.076293	-37.463849	71.632573	19.868405	2.048430	-24.869431	
2.4900	25.300996	36.966285	2.065976	0.008566	1.004713	-0.037146	-19.875107	34.300256	-23.224246	24.974661	45.000000	-10.154907	-7.669410	-90.000000	16.910333	72.219481	13.546780	42.838208	-23.381377	18.870870	-11.732862	-45.000000	4.647836	6.020065	18.399818	29.384732	-55.461744	-37.281904	71.884453	19.224118	2.880789	-24.774015	
2.5000	25.307689	37.126816	2.075413	0.008502	1.004710	-0.037217	-19.847762	34.299629	-23.163568	24.978068	45.000000	-10.145040	-7.571679	-90.000000	16.813204	72.544095	13.325416	42.669715	-23.131205	18.987384	-11.880176	-45.000000	4.641662	5.592021	18.362275	29.759998	-54.746511	-37.119431	72.158265	18.509606	3.788007	-24.589669	
2.5100	25.304299	37.289067	2.091641	0.008450	1.004718	-0.037299	-19.821118	34.291106	-23.091028	24.974290	45.000000	-10.138688	-7.473660	-90.000000	16.715802	72.853080	13.072249	42.512593	-22.876201	19.103416	-12.021775	-45.000000	4.629927	5.162003	18.327450	30.146475	-54.010197	-36.996243	72.423577	17.840175	4.617834	-24.328218	
2.5200	25.315781	37.449830	2.077983	0.008389	1.004712	-0.037368	-19.801323	34.270199	-23.012526	24.958423	45.000000	-10.139641	-7.364238	-90.000000	16.607055	73.185598	12.769164	42.336031	-22.593677	19.230864	-12.179649	-45.000000	4.617996	4.687830	18.287927	30.570525	-53.202844	-36.887415	72.697296	17.151167	5.477942	-23.975216	
2.5300	25.320507	37.602748	2.064404	0.008349	1.004710	-0.037448	-19.781370	34.238499	-22.915477	24.932898	45.000000	-10.144968	-7.252006	-90.000000	16.495425	73.503896	12.460314	42.170923	-22.330554	19.340192	-12.333479	-45.000000	4.622088	4.281703	18.242887	30.960644	-52.436404	-36.803337	72.949177	16.579181	6.201667	-23.585297	
2.5400	25.328247	37.750824	2.038497	0.008305	1.004680	-0.037519	-19.763151	34.199732	-22.810479	24.900790	45.000000	-10.153638	-7.134136	-90.000000	16.378164	73.846199	12.082503	41.970276	-22.020729	19.458329	-12.496468	-45.000000	4.620420	3.834568	18.196119	31.378741	-51.619340	-36.722944	73.221011	16.038637	6.928994	-23.084143	
2.5500	25.322129	37.899193	2.029999	0.008279	1.004647	-0.037595	-19.742564	34.159278	-22.697598	24.867506	45.000000	-10.162171	-7.017270	-90.000000	16.261846	74.175594	11.667462	41.749280	-21.687417	19.573073	-12.660976	-45.000000	4.620707	3.393811	18.146619	31.788124	-50.812031	-36.639613	73.485896	15.576261	7.597428	-22.542282	
2.5600	25.325024	38.057280	2.006342	0.008231	1.004609	-0.037652	-19.729068	34.113053	-22.590893	24.828064	45.000000	-10.175252	-6.892331	-90.000000	16.137537	74.527488	11.131291	41.463686	-21.252758	19.722994	-12.856215	-45.000000	4.600643	2.805554	18.093597	32.283270	-49.866814	-36.537755	73.768697	15.047500	8.379103	-21.902070	
